<svg width="0" height="0" class="hidden">
  <symbol version="1.1" id="movie-roll" xmlns="http://www.w3.org/2000/svg" xmlns:xlink="http://www.w3.org/1999/xlink" xml:space="preserve" viewBox="0 0 512 512">
    <g id="SVGRepo_bgCarrier" stroke-width="0"></g>
    <g id="SVGRepo_tracerCarrier" stroke-linecap="round" stroke-linejoin="round"></g>
    <g id="SVGRepo_iconCarrier">
      <g>
        <path d="M343.656,451.109C410,411.438,454.422,338.906,454.422,256c0-125.484-101.719-227.219-227.203-227.219 C101.719,28.781,0,130.516,0,256s101.719,227.219,227.219,227.219H512v-32.109H343.656z M318.484,145.875 c23.547-13.594,53.641-5.531,67.234,18.016s5.531,53.656-18.016,67.25c-23.547,13.578-53.641,5.516-67.234-18.016 C286.859,189.563,294.938,159.469,318.484,145.875z M300.453,297.688c13.609-23.547,43.703-31.609,67.25-18.016 c23.547,13.609,31.609,43.703,18.016,67.25s-43.688,31.609-67.25,18.016C294.938,351.344,286.859,321.234,300.453,297.688z M227.219,72.375c27.188,0,49.219,22.031,49.219,49.219s-22.031,49.25-49.219,49.25s-49.25-22.063-49.25-49.25 S200.031,72.375,227.219,72.375z M249.938,256c0,12.563-10.172,22.719-22.719,22.719c-12.563,0-22.719-10.156-22.719-22.719 s10.156-22.719,22.719-22.719C239.766,233.281,249.938,243.438,249.938,256z M68.703,163.891 c13.594-23.547,43.703-31.609,67.25-18.016s31.609,43.688,18.016,67.25c-13.594,23.531-43.703,31.609-67.25,18.016 C63.188,217.547,55.109,187.438,68.703,163.891z M135.969,364.938c-23.563,13.594-53.656,5.531-67.266-18.016 c-13.578-23.547-5.516-53.656,18.016-67.266c23.547-13.594,53.656-5.516,67.25,18.031S159.5,351.344,135.969,364.938z M177.969,389.203c0-27.188,22.063-49.234,49.25-49.234s49.219,22.047,49.219,49.234s-22.031,49.234-49.219,49.234 S177.969,416.391,177.969,389.203z"></path>
      </g>
    </g>
  </symbol>
  <symbol xmlns="http://www.w3.org/2000/svg" viewBox="0 0 24 24" id="search">
    <path d="M16.6725 16.6412L21 21M19 11C19 15.4183 15.4183 19 11 19C6.58172 19 3 15.4183 3 11C3 6.58172 6.58172 3 11 3C15.4183 3 19 6.58172 19 11Z" stroke-width="2" stroke-linecap="round" stroke-linejoin="round"></path>
  </symbol>
  <symbol xmlns="http://www.w3.org/2000/svg" viewBox="0 0 24 24" id="burger">
    <path d="M5 12H18" stroke-width="2" stroke-linecap="round"></path>
    <path d="M5 17H11" stroke-width="2" stroke-linecap="round"></path>
    <path d="M5 7H15" stroke-width="2" stroke-linecap="round"></path>
  </symbol>
  <symbol xmlns="http://www.w3.org/2000/svg" viewBox="0 0 24 24" id="arrow-prev">
    <path d="M16.1795 3.26875C15.7889 2.87823 15.1558 2.87823 14.7652 3.26875L8.12078 9.91322C6.94952 11.0845 6.94916 12.9833 8.11996 14.155L14.6903 20.7304C15.0808 21.121 15.714 21.121 16.1045 20.7304C16.495 20.3399 16.495 19.7067 16.1045 19.3162L9.53246 12.7442C9.14194 12.3536 9.14194 11.7205 9.53246 11.33L16.1795 4.68297C16.57 4.29244 16.57 3.65928 16.1795 3.26875Z"></path>
  </symbol>
  <symbol xmlns="http://www.w3.org/2000/svg" viewBox="0 0 24 24" id="arrow-next">
    <path d="M7.82054 20.7313C8.21107 21.1218 8.84423 21.1218 9.23476 20.7313L15.8792 14.0868C17.0505 12.9155 17.0508 11.0167 15.88 9.84497L9.3097 3.26958C8.91918 2.87905 8.28601 2.87905 7.89549 3.26958C7.50497 3.6601 7.50497 4.29327 7.89549 4.68379L14.4675 11.2558C14.8581 11.6464 14.8581 12.2795 14.4675 12.67L7.82054 19.317C7.43002 19.7076 7.43002 20.3407 7.82054 20.7313Z"></path>
  </symbol>
  <symbol xmlns="http://www.w3.org/2000/svg" viewBox="0 0 24 24" id="dots">
    <path d="M18 12H18.01M12 12H12.01M6 12H6.01M13 12C13 12.5523 12.5523 13 12 13C11.4477 13 11 12.5523 11 12C11 11.4477 11.4477 11 12 11C12.5523 11 13 11.4477 13 12ZM19 12C19 12.5523 18.5523 13 18 13C17.4477 13 17 12.5523 17 12C17 11.4477 17.4477 11 18 11C18.5523 11 19 11.4477 19 12ZM7 12C7 12.5523 6.55228 13 6 13C5.44772 13 5 12.5523 5 12C5 11.4477 5.44772 11 6 11C6.55228 11 7 11.4477 7 12Z" stroke-width="2" stroke-linecap="round" stroke-linejoin="round"></path>
  </symbol>
  <symbol xmlns="http://www.w3.org/2000/svg" viewBox="0 0 24 24" id="rate">
    <path fill-rule="evenodd" clip-rule="evenodd" d="M6.64025 12.3374L5.63993 15.6449C5.39657 16.4496 4.65505 17 3.8144 17C3.36462 17 3 17.3646 3 17.8144V20C3 20.5523 3.44772 21 4 21H10.0563C10.5245 21 10.9301 20.6751 11.0322 20.2182L11.4794 18.2182C11.6191 17.5933 11.1437 17 10.5035 17H9.4517C8.14995 17 7.1959 15.7762 7.51157 14.5143C7.72499 13.6612 7.35552 12.7891 6.64025 12.3374ZM4.89177 11.21C5.13885 10.393 6.01688 9.94655 6.82258 10.2282L6.89163 10.2524C8.84403 10.935 9.95356 12.9938 9.45178 14.9997L10.5035 15C12.4243 15 13.8503 16.78 13.4312 18.6546L12.984 20.6546C12.6776 22.0254 11.461 23 10.0563 23H4C2.34315 23 1 21.6569 1 20V17.8144C1 16.2832 2.22285 15.0375 3.74526 15.0008L4.89177 11.21Z"></path>
    <path fill-rule="evenodd" clip-rule="evenodd" d="M17.3598 11.6626L18.3601 8.35509C18.6034 7.55043 19.3449 7 20.1856 7C20.6354 7 21 6.63538 21 6.1856V4C21 3.44772 20.5523 3 20 3L13.9437 3C13.4755 3 13.0699 3.32488 12.9678 3.78181L12.5206 5.78181C12.3809 6.40666 12.8563 7 13.4965 7H14.5483C15.85 7 16.8041 8.22379 16.4884 9.48568C16.275 10.3388 16.6445 11.2109 17.3598 11.6626ZM19.1082 12.79C18.8611 13.607 17.9831 14.0535 17.1774 13.7718L17.1084 13.7476C15.156 13.065 14.0464 11.0062 14.5482 9.00033L13.4965 9C11.5757 9 10.1497 7.21998 10.5688 5.34543L11.016 3.34543C11.3224 1.97463 12.539 1 13.9437 1L20 1C21.6569 1 23 2.34315 23 4V6.1856C23 7.71684 21.7771 8.96246 20.2547 8.99917L19.1082 12.79Z"></path>
  </symbol>
  <symbol xmlns="http://www.w3.org/2000/svg" viewBox="0 0 24 24" id="heart">
    <g opacity="0.8">
      <path d="M20.8401 4.61012C20.3294 4.09912 19.7229 3.69376 19.0555 3.4172C18.388 3.14064 17.6726 2.99829 16.9501 2.99829C16.2276 2.99829 15.5122 3.14064 14.8448 3.4172C14.1773 3.69376 13.5709 4.09912 13.0601 4.61012L12.0001 5.67012L10.9401 4.61012C9.90843 3.57842 8.50915 2.99883 7.05012 2.99883C5.59109 2.99883 4.19181 3.57842 3.16012 4.61012C2.12843 5.64181 1.54883 7.04108 1.54883 8.50012C1.54883 9.95915 2.12843 11.3584 3.16012 12.3901L4.22012 13.4501L12.0001 21.2301L19.7801 13.4501L20.8401 12.3901C21.3511 11.8794 21.7565 11.2729 22.033 10.6055C22.3096 9.93801 22.4519 9.2226 22.4519 8.50012C22.4519 7.77763 22.3096 7.06222 22.033 6.39476C21.7565 5.7273 21.3511 5.12087 20.8401 4.61012V4.61012Z" stroke-width="2" stroke-linecap="round" stroke-linejoin="round"></path>
    </g>
  </symbol>
  <symbol xmlns="http://www.w3.org/2000/svg" viewBox="0 0 24 24" id="plus">
    <path d="M4 12H20M12 4V20" stroke-width="2.5" stroke-linecap="round" stroke-linejoin="round"></path>
  </symbol>
  <symbol xmlns="http://www.w3.org/2000/svg" viewBox="0 0 24 24" id="close">
    <g id="Menu / Close_MD">
      <path id="Vector" d="M18 18L12 12M12 12L6 6M12 12L18 6M12 12L6 18" stroke-width="2.5" stroke-linecap="round" stroke-linejoin="round"></path>
    </g>
  </symbol>
  <symbol xmlns="http://www.w3.org/2000/svg" viewBox="0 0 24 24" id="pen">
    <path fill-rule="evenodd" clip-rule="evenodd" d="M11.9426 1.25L13.5 1.25C13.9142 1.25 14.25 1.58579 14.25 2C14.25 2.41421 13.9142 2.75 13.5 2.75H12C9.62178 2.75 7.91356 2.75159 6.61358 2.92637C5.33517 3.09825 4.56445 3.42514 3.9948 3.9948C3.42514 4.56445 3.09825 5.33517 2.92637 6.61358C2.75159 7.91356 2.75 9.62178 2.75 12C2.75 14.3782 2.75159 16.0864 2.92637 17.3864C3.09825 18.6648 3.42514 19.4355 3.9948 20.0052C4.56445 20.5749 5.33517 20.9018 6.61358 21.0736C7.91356 21.2484 9.62178 21.25 12 21.25C14.3782 21.25 16.0864 21.2484 17.3864 21.0736C18.6648 20.9018 19.4355 20.5749 20.0052 20.0052C20.5749 19.4355 20.9018 18.6648 21.0736 17.3864C21.2484 16.0864 21.25 14.3782 21.25 12V10.5C21.25 10.0858 21.5858 9.75 22 9.75C22.4142 9.75 22.75 10.0858 22.75 10.5V12.0574C22.75 14.3658 22.75 16.1748 22.5603 17.5863C22.366 19.031 21.9607 20.1711 21.0659 21.0659C20.1711 21.9607 19.031 22.366 17.5863 22.5603C16.1748 22.75 14.3658 22.75 12.0574 22.75H11.9426C9.63423 22.75 7.82519 22.75 6.41371 22.5603C4.96897 22.366 3.82895 21.9607 2.93414 21.0659C2.03933 20.1711 1.63399 19.031 1.43975 17.5863C1.24998 16.1748 1.24999 14.3658 1.25 12.0574V11.9426C1.24999 9.63423 1.24998 7.82519 1.43975 6.41371C1.63399 4.96897 2.03933 3.82895 2.93414 2.93414C3.82895 2.03933 4.96897 1.63399 6.41371 1.43975C7.82519 1.24998 9.63423 1.24999 11.9426 1.25ZM16.7705 2.27592C18.1384 0.908029 20.3562 0.908029 21.7241 2.27592C23.092 3.6438 23.092 5.86158 21.7241 7.22947L15.076 13.8776C14.7047 14.2489 14.4721 14.4815 14.2126 14.684C13.9069 14.9224 13.5761 15.1268 13.2261 15.2936C12.929 15.4352 12.6169 15.5392 12.1188 15.7052L9.21426 16.6734C8.67801 16.8521 8.0868 16.7126 7.68711 16.3129C7.28742 15.9132 7.14785 15.322 7.3266 14.7857L8.29477 11.8812C8.46079 11.3831 8.56479 11.071 8.7064 10.7739C8.87319 10.4239 9.07761 10.0931 9.31605 9.78742C9.51849 9.52787 9.7511 9.29529 10.1224 8.924L16.7705 2.27592ZM20.6634 3.33658C19.8813 2.55448 18.6133 2.55448 17.8312 3.33658L17.4546 3.7132C17.4773 3.80906 17.509 3.92327 17.5532 4.05066C17.6965 4.46372 17.9677 5.00771 18.48 5.51999C18.9923 6.03227 19.5363 6.30346 19.9493 6.44677C20.0767 6.49097 20.1909 6.52273 20.2868 6.54543L20.6634 6.16881C21.4455 5.38671 21.4455 4.11867 20.6634 3.33658ZM19.1051 7.72709C18.5892 7.50519 17.9882 7.14946 17.4193 6.58065C16.8505 6.01185 16.4948 5.41082 16.2729 4.89486L11.2175 9.95026C10.801 10.3668 10.6376 10.532 10.4988 10.7099C10.3274 10.9297 10.1804 11.1676 10.0605 11.4192C9.96337 11.623 9.88868 11.8429 9.7024 12.4017L9.27051 13.6974L10.3026 14.7295L11.5983 14.2976C12.1571 14.1113 12.377 14.0366 12.5808 13.9395C12.8324 13.8196 13.0703 13.6726 13.2901 13.5012C13.468 13.3624 13.6332 13.199 14.0497 12.7825L19.1051 7.72709Z"></path>
  </symbol>
  <symbol xmlns="http://www.w3.org/2000/svg" viewBox="0 0 16 16" id="error">
    <path d="M7.493 0.015 C 7.442 0.021,7.268 0.039,7.107 0.055 C 5.234 0.242,3.347 1.208,2.071 2.634 C 0.660 4.211,-0.057 6.168,0.009 8.253 C 0.124 11.854,2.599 14.903,6.110 15.771 C 8.169 16.280,10.433 15.917,12.227 14.791 C 14.017 13.666,15.270 11.933,15.771 9.887 C 15.943 9.186,15.983 8.829,15.983 8.000 C 15.983 7.171,15.943 6.814,15.771 6.113 C 14.979 2.878,12.315 0.498,9.000 0.064 C 8.716 0.027,7.683 -0.006,7.493 0.015 M8.853 1.563 C 9.967 1.707,11.010 2.136,11.944 2.834 C 12.273 3.080,12.920 3.727,13.166 4.056 C 13.727 4.807,14.142 5.690,14.330 6.535 C 14.544 7.500,14.544 8.500,14.330 9.465 C 13.916 11.326,12.605 12.978,10.867 13.828 C 10.239 14.135,9.591 14.336,8.880 14.444 C 8.456 14.509,7.544 14.509,7.120 14.444 C 5.172 14.148,3.528 13.085,2.493 11.451 C 2.279 11.114,1.999 10.526,1.859 10.119 C 1.618 9.422,1.514 8.781,1.514 8.000 C 1.514 6.961,1.715 6.075,2.160 5.160 C 2.500 4.462,2.846 3.980,3.413 3.413 C 3.980 2.846,4.462 2.500,5.160 2.160 C 6.313 1.599,7.567 1.397,8.853 1.563 M7.706 4.290 C 7.482 4.363,7.355 4.491,7.293 4.705 C 7.257 4.827,7.253 5.106,7.259 6.816 C 7.267 8.786,7.267 8.787,7.325 8.896 C 7.398 9.033,7.538 9.157,7.671 9.204 C 7.803 9.250,8.197 9.250,8.329 9.204 C 8.462 9.157,8.602 9.033,8.675 8.896 C 8.733 8.787,8.733 8.786,8.741 6.816 C 8.749 4.664,8.749 4.662,8.596 4.481 C 8.472 4.333,8.339 4.284,8.040 4.276 C 7.893 4.272,7.743 4.278,7.706 4.290 M7.786 10.530 C 7.597 10.592,7.410 10.753,7.319 10.932 C 7.249 11.072,7.237 11.325,7.294 11.495 C 7.388 11.780,7.697 12.000,8.000 12.000 C 8.303 12.000,8.612 11.780,8.706 11.495 C 8.763 11.325,8.751 11.072,8.681 10.932 C 8.616 10.804,8.460 10.646,8.333 10.580 C 8.217 10.520,7.904 10.491,7.786 10.530 " stroke="none" fill-rule="evenodd"></path>
  </symbol>
</svg>
